<?xml version="1.0" encoding="UTF-8" standalone="no"?>
<!-- Created with Inkscape (http://www.inkscape.org/) -->

<svg
   width="512"
   height="478"
   viewBox="0 0 135.46666 126.47084"
   version="1.1"
   id="svg1"
   xml:space="preserve"
   inkscape:version="1.4.2 (ebf0e940d0, 2025-05-08)"
   sodipodi:docname="logo.white.svg"
   xmlns:inkscape="http://www.inkscape.org/namespaces/inkscape"
   xmlns:sodipodi="http://sodipodi.sourceforge.net/DTD/sodipodi-0.dtd"
   xmlns="http://www.w3.org/2000/svg"
   xmlns:svg="http://www.w3.org/2000/svg"><sodipodi:namedview
     id="namedview1"
     pagecolor="#505050"
     bordercolor="#eeeeee"
     borderopacity="1"
     inkscape:showpageshadow="0"
     inkscape:pageopacity="0"
     inkscape:pagecheckerboard="0"
     inkscape:deskcolor="#505050"
     inkscape:document-units="mm"
     inkscape:zoom="1.4929298"
     inkscape:cx="279.65146"
     inkscape:cy="224.05608"
     inkscape:window-width="2560"
     inkscape:window-height="1400"
     inkscape:window-x="0"
     inkscape:window-y="0"
     inkscape:window-maximized="1"
     inkscape:current-layer="layer1" /><defs
     id="defs1"><inkscape:path-effect
       effect="spiro"
       id="path-effect12"
       is_visible="true"
       lpeversion="1" /><inkscape:path-effect
       effect="spiro"
       id="path-effect11"
       is_visible="true"
       lpeversion="1" /><inkscape:path-effect
       effect="bspline"
       id="path-effect10"
       is_visible="true"
       lpeversion="1.3"
       weight="33.333333"
       steps="2"
       helper_size="0"
       apply_no_weight="true"
       apply_with_weight="true"
       only_selected="false"
       uniform="false" /><inkscape:path-effect
       effect="skeletal"
       id="path-effect8"
       is_visible="true"
       lpeversion="1"
       pattern="M 0,4.9921381 C 0,2.2364779 2.2364779,0 4.9921381,0 c 2.7556603,0 4.9921381,2.2364779 4.9921381,4.9921381 0,2.7556603 -2.2364778,4.9921381 -4.9921381,4.9921381 C 2.2364779,9.9842762 0,7.7477984 0,4.9921381 Z"
       copytype="single_stretched"
       prop_scale="1"
       scale_y_rel="false"
       spacing="0"
       normal_offset="0"
       tang_offset="0"
       prop_units="false"
       vertical_pattern="false"
       hide_knot="false"
       fuse_tolerance="0" /><inkscape:path-effect
       effect="powerstroke"
       message=""
       id="path-effect6"
       is_visible="true"
       lpeversion="1.3"
       scale_width="1"
       interpolator_type="CubicBezierJohan"
       interpolator_beta="0.2"
       start_linecap_type="zerowidth"
       end_linecap_type="zerowidth"
       offset_points="0,4.9921381"
       linejoin_type="extrp_arc"
       miter_limit="4"
       not_jump="false"
       sort_points="true" /><inkscape:path-effect
       effect="fill_between_many"
       method="bsplinespiro"
       autoreverse="false"
       close="false"
       join="false"
       linkedpaths="#path6,0,1"
       id="path-effect7" /></defs><g
     inkscape:label="Layer 1"
     inkscape:groupmode="layer"
     id="layer1"><g
       id="g17"
       style="fill:#ffffff"><g
         id="g18"
         style="fill:#ffffff"><path
           id="path1"
           style="fill:#ffffff;stroke-width:2.25809"
           d="M 11.288717,0 C 4.9669376,0 0,5.194036 0,11.517577 v 23.035869 80.399744 c 0,6.32354 4.9669376,11.51764 11.288717,11.51764 H 124.17795 c 6.32178,0 11.28872,-5.1941 11.28872,-11.51764 V 40.199613 c 0,-6.323541 -4.96694,-11.517643 -11.28872,-11.517643 H 60.056799 c -4.064,0 -7.676499,-2.258556 -9.934277,-5.646167 L 40.188245,5.871993 C 38.382023,2.2585407 34.769571,0 30.479793,0 Z m 56.444616,50.8 c 9.352022,-10e-7 16.933335,7.581311 16.933334,16.933333 10e-7,9.352023 -7.581311,16.933335 -16.933334,16.933334 C 58.381311,84.666668 50.799999,77.085355 50.8,67.733333 50.799999,58.381311 58.381311,50.799999 67.733333,50.8 Z M 93.132817,65.484375 H 127 c 1.16941,-2.85e-4 2.11747,0.947778 2.11718,2.117183 -8.5e-4,1.168598 -0.94858,2.115402 -2.11718,2.115117 H 95.058797 C 94.392663,80.276413 87.214495,89.96693 77.144645,93.496102 60.466801,100.09543 41.32527,87.321977 40.440426,69.724426 H 8.4666667 C 7.2972601,69.724713 6.3491969,68.77665 6.3494832,67.607243 6.3491964,66.437836 7.2972597,65.489772 8.4666667,65.490059 H 42.33385 c 0.513817,0.002 1.00937,0.190801 1.39423,0.531234 0.624075,0.406158 0.992508,1.107218 0.973067,1.851567 -0.423796,15.454904 16.526053,27.337132 30.890621,21.632788 l 0.04289,-0.01757 0.04496,-0.0155 c 8.859802,-3.079699 15.265378,-12.26763 15.144812,-21.630721 -0.0062,-0.605615 0.244276,-1.185548 0.689364,-1.596285 0.400653,-0.480541 0.993373,-0.759212 1.619023,-0.761194 z"
           sodipodi:nodetypes="sscsssssssccssssssscccccccccccccccccccc" /><path
           d="M 124.17778,5.6460176 H 56.218667 c -1.128889,0 -1.806222,1.1292039 -1.128889,2.032567 l 4.515556,7.6785864 c 0.451555,1.129204 1.354667,1.806726 2.483555,1.806726 h 62.088891 c 3.16089,0 6.32178,0.677522 8.80533,1.806726 1.12889,0.677522 2.48356,-0.225841 2.48356,-1.806726 v 0 c 0,-6.323542 -4.96711,-11.5178794 -11.28889,-11.5178794 z"
           id="path2"
           style="fill:#ffffff;stroke-width:2.25809" /></g></g><g
       id="path9"
       style="opacity:1"><path
         style="baseline-shift:baseline;display:inline;overflow:visible;vector-effect:none;fill:#ffffff;stroke-linecap:round;enable-background:accumulate;stop-color:#000000;stop-opacity:1"
         d="M 8.4666665,67.607436 H 42.333333"
         id="path16" /></g><g
       id="path9-3"
       style="opacity:1"><path
         style="baseline-shift:baseline;display:inline;overflow:visible;vector-effect:none;fill:#ffffff;stroke-linecap:round;enable-background:accumulate;stop-color:#000000;stop-opacity:1"
         d="M 93.133334,67.601042 H 127"
         id="path14" /></g></g></svg>
